<?xml version="1.0" standalone="yes"?>
<svg xmlns="http://www.w3.org/2000/svg" width="960" height="480">
<path style="fill:#d52b1e; stroke:none;" d="M0 0L0 480L240 480L240 0L0 0z"/>
<path style="fill:#ffffff; stroke:none;" d="M240 0L240 480L720 480L720 0L240 0z"/>
<path style="fill:#d52b1e; stroke:none;" d="M720 0L720 480L960 480L960 0L720 0z"/>
<path style="fill:#f4c9c6; stroke:none;" d="M479.667 40.3333C479.222 40.7777 480.278 40.7222 480.333 40.6667C480.778 40.2222 479.722 40.2779 479.667 40.3333z"/>
<path style="fill:#df5c52; stroke:none;" d="M479.667 41.3333C479.222 41.7777 480.278 41.7223 480.333 41.6667C480.778 41.2222 479.722 41.2778 479.667 41.3333z"/>
<path style="fill:#f3c5c1; stroke:none;" d="M478 42L479 43L478 42z"/>
<path style="fill:#d52b1e; stroke:none;" d="M479 42C469.42 58.4142 462.089 76.1904 453.219 93C450.817 97.5518 447.054 108.056 440.996 108.407C437.275 108.624 433.068 105.18 430 103.421C422.103 98.8944 414.366 93.6048 406 90C406.429 99.9659 409.245 110.222 411.2 120C414.857 138.29 418.792 156.613 421.919 175C422.943 181.022 426.155 188.926 425.277 194.999C424.847 197.973 422.266 201.364 418.996 201.364C413.929 201.364 408.218 193.359 405.09 190C394.369 178.491 384.246 164.874 372 155C368.485 162.427 365.693 176.48 358.867 181.397C354.396 184.617 347.807 181.778 343 180.801C328.981 177.952 315.046 174.724 301 172C303.146 186.528 309.699 201.096 314.333 215C315.927 219.781 320.33 227.986 317.933 232.957C314.766 239.523 301.379 243.344 295 246C301.11 254.301 311.016 260.36 319 266.803C334.691 279.467 350.484 292.042 366 304.919C371.6 309.566 377.397 313.971 382.999 318.615C385.659 320.82 389.159 323.415 389.932 327C390.677 330.455 388.443 334.81 387.308 338C384.575 345.678 381.526 353.25 379 361C401.132 360.543 424.185 353.602 446 349.919C453.078 348.724 464.476 344.072 470.895 348.707C478.454 354.165 475 365.095 475 373C474.999 396.333 472 419.706 471 443L489 443C486.714 430.685 487.508 417.498 486.961 405C486.464 393.664 485.054 382.367 484.999 371C484.96 362.868 481.317 351.94 491.015 347.612C497.749 344.607 509.028 349.083 516 350.247C537.184 353.784 559.517 360.557 581 361C578.364 352.914 575.155 345.025 572.343 337C571.31 334.051 569.188 330.195 569.952 327.001C570.802 323.451 574.373 320.967 577.001 318.754C582.904 313.782 588.995 309.043 595 304.197C610.376 291.786 625.623 279.214 641 266.803C648.984 260.36 658.89 254.301 665 246C658.621 243.344 645.234 239.523 642.067 232.957C639.67 227.986 644.073 219.781 645.667 215C650.301 201.096 656.854 186.528 659 172C645.345 174.648 631.505 177.33 618 180.626C613.235 181.788 605.541 184.555 601.133 181.396C594.308 176.505 591.507 162.411 588 155C575.568 165.753 565.448 179.25 553.985 191C550.918 194.144 545.124 202.373 540.015 201.248C529.97 199.037 537.141 180.371 538.25 174C541.391 155.953 545.208 137.964 548.8 120C550.755 110.222 553.571 99.9659 554 90C545.67 93.5897 537.873 98.908 530 103.421C526.932 105.18 522.725 108.624 519.004 108.407C512.849 108.05 509.381 97.5451 506.861 93C497.629 76.3461 490.598 58.4448 481 42L479 42z"/>
<path style="fill:#f4c6c2; stroke:none;" d="M481 42L482 43L481 42z"/>
<path style="fill:#f3c1bd; stroke:none;" d="M477 44L478 45L477 44z"/>
<path style="fill:#f3c1be; stroke:none;" d="M482 44L483 45L482 44z"/>
<path style="fill:#f2bcb8; stroke:none;" d="M476 46L477 47L476 46z"/>
<path style="fill:#f2bdb9; stroke:none;" d="M483 46L484 47L483 46z"/>
<path style="fill:#f1b9b5; stroke:none;" d="M475 48L476 49L475 48z"/>
<path style="fill:#f1bab6; stroke:none;" d="M484 48L485 49L484 48z"/>
<path style="fill:#f0b5b0; stroke:none;" d="M474 50L475 51L474 50z"/>
<path style="fill:#f1b6b1; stroke:none;" d="M485 50L486 51L485 50z"/>
<path style="fill:#f0b1ac; stroke:none;" d="M473 52L474 53L473 52z"/>
<path style="fill:#f0b2ad; stroke:none;" d="M486 52L487 53L486 52z"/>
<path style="fill:#efaea9; stroke:none;" d="M472 54L473 55L472 54M487 54L488 55L487 54z"/>
<path style="fill:#eea9a4; stroke:none;" d="M471 56L472 57L471 56z"/>
<path style="fill:#eeaaa5; stroke:none;" d="M488 56L489 57L488 56z"/>
<path style="fill:#eda5a0; stroke:none;" d="M470 58L471 59L470 58z"/>
<path style="fill:#eda6a1; stroke:none;" d="M489 58L490 59L489 58z"/>
<path style="fill:#eca19b; stroke:none;" d="M469 60L470 61L469 60z"/>
<path style="fill:#eda29c; stroke:none;" d="M490 60L491 61L490 60z"/>
<path style="fill:#ec9e98; stroke:none;" d="M468 62L469 63L468 62z"/>
<path style="fill:#ec9f99; stroke:none;" d="M491 62L492 63L491 62z"/>
<path style="fill:#eb9a93; stroke:none;" d="M467 64L468 65L467 64z"/>
<path style="fill:#eb9a94; stroke:none;" d="M492 64L493 65L492 64z"/>
<path style="fill:#ea958f; stroke:none;" d="M466 66L467 67L466 66z"/>
<path style="fill:#ea9690; stroke:none;" d="M493 66L494 67L493 66z"/>
<path style="fill:#e9928b; stroke:none;" d="M465 68L466 69L465 68z"/>
<path style="fill:#ea938c; stroke:none;" d="M494 68L495 69L494 68z"/>
<path style="fill:#e98f88; stroke:none;" d="M464 70L465 71L464 70z"/>
<path style="fill:#e99089; stroke:none;" d="M495 70L496 71L495 70z"/>
<path style="fill:#e88b83; stroke:none;" d="M463 72L464 73L463 72z"/>
<path style="fill:#e88b84; stroke:none;" d="M496 72L497 73L496 72z"/>
<path style="fill:#e7867f; stroke:none;" d="M462 74L463 75L462 74z"/>
<path style="fill:#e78780; stroke:none;" d="M497 74L498 75L497 74z"/>
<path style="fill:#e6827b; stroke:none;" d="M461 76L462 77L461 76z"/>
<path style="fill:#e6837c; stroke:none;" d="M498 76L499 77L498 76z"/>
<path style="fill:#e67f77; stroke:none;" d="M460 78L461 79L460 78z"/>
<path style="fill:#e68078; stroke:none;" d="M499 78L500 79L499 78z"/>
<path style="fill:#e57b73; stroke:none;" d="M459 80L460 81L459 80z"/>
<path style="fill:#e57c74; stroke:none;" d="M500 80L501 81L500 80z"/>
<path style="fill:#e4776e; stroke:none;" d="M458 82L459 83L458 82z"/>
<path style="fill:#e4776f; stroke:none;" d="M501 82L502 83L501 82z"/>
<path style="fill:#e3736b; stroke:none;" d="M457 84L458 85L457 84z"/>
<path style="fill:#e3746c; stroke:none;" d="M502 84L503 85L502 84z"/>
<path style="fill:#e36f66; stroke:none;" d="M456 86L457 87L456 86z"/>
<path style="fill:#e37067; stroke:none;" d="M503 86L504 87L503 86z"/>
<path style="fill:#e26b62; stroke:none;" d="M455 88L456 89L455 88z"/>
<path style="fill:#e26c63; stroke:none;" d="M504 88L505 89L504 88z"/>
<path style="fill:#e1695f; stroke:none;" d="M405 89L405 92C405.696 90.4463 405.696 90.5537 405 89z"/>
<path style="fill:#e16960; stroke:none;" d="M554.333 89.6667C554.278 89.7224 554.222 90.7778 554.667 90.3333C554.722 90.2779 554.778 89.2222 554.333 89.6667z"/>
<path style="fill:#e68078; stroke:none;" d="M407 90L408 91L407 90z"/>
<path style="fill:#e1675e; stroke:none;" d="M454 90L455 91L454 90z"/>
<path style="fill:#e1685e; stroke:none;" d="M505 90L506 91L505 90z"/>
<path style="fill:#e98e87; stroke:none;" d="M552 90L553 91L552 90z"/>
<path style="fill:#eda49e; stroke:none;" d="M409 91L410 92L409 91z"/>
<path style="fill:#f5ccc9; stroke:none;" d="M506 91L507 92L506 91z"/>
<path style="fill:#f0b2ad; stroke:none;" d="M550 91L551 92L550 91z"/>
<path style="fill:#f2bcb8; stroke:none;" d="M554.333 91.6667C554.278 91.7224 554.222 92.7777 554.667 92.3333C554.722 92.2779 554.778 91.2222 554.333 91.6667z"/>
<path style="fill:#f3c4c0; stroke:none;" d="M411 92L412 93L411 92z"/>
<path style="fill:#e0645a; stroke:none;" d="M453 92L454 93L453 92z"/>
<path style="fill:#e0645b; stroke:none;" d="M506 92L507 93L506 92z"/>
<path style="fill:#f5cbc7; stroke:none;" d="M548 92L549 93L548 92z"/>
<path style="fill:#e26b62; stroke:none;" d="M412 93L413 94L412 93z"/>
<path style="fill:#f5cbc7; stroke:none;" d="M507 93L508 94L507 93z"/>
<path style="fill:#e47971; stroke:none;" d="M547 93L548 94L547 93z"/>
<path style="fill:#e98e87; stroke:none;" d="M414 94L415 95L414 94z"/>
<path style="fill:#e06056; stroke:none;" d="M452 94L453 95L452 94z"/>
<path style="fill:#df5d53; stroke:none;" d="M507 94L508 95L507 94z"/>
<path style="fill:#eb9c96; stroke:none;" d="M545 94L546 95L545 94z"/>
<path style="fill:#e88b84; stroke:none;" d="M406 95L406 98C406.696 96.4463 406.696 96.5537 406 95z"/>
<path style="fill:#f0b2ad; stroke:none;" d="M416 95L417 96L416 95z"/>
<path style="fill:#f4c7c4; stroke:none;" d="M451 95L452 96L451 95z"/>
<path style="fill:#f4c8c5; stroke:none;" d="M508 95L509 96L508 95z"/>
<path style="fill:#f2c0bc; stroke:none;" d="M543 95L544 96L543 95z"/>
<path style="fill:#e88c85; stroke:none;" d="M553 95L553 98C553.696 96.4463 553.696 96.5537 553 95z"/>
<path style="fill:#df5f55; stroke:none;" d="M451 96L452 97L451 96z"/>
<path style="fill:#df5d53; stroke:none;" d="M542 96L543 97L542 96z"/>
<path style="fill:#e47971; stroke:none;" d="M419 97L420 98L419 97z"/>
<path style="fill:#f3c3bf; stroke:none;" d="M450 97L451 98L450 97z"/>
<path style="fill:#f3c4c0; stroke:none;" d="M509 97L510 98L509 97z"/>
<path style="fill:#e78780; stroke:none;" d="M540 97L541 98L540 97z"/>
<path style="fill:#ea958f; stroke:none;" d="M421 98L422 99L421 98z"/>
<path style="fill:#eda49e; stroke:none;" d="M538 98L539 99L538 98z"/>
<path style="fill:#f1b8b4; stroke:none;" d="M423 99L424 100L423 99z"/>
<path style="fill:#f2c0bc; stroke:none;" d="M449 99L450 100L449 99z"/>
<path style="fill:#f3c1bd; stroke:none;" d="M510 99L511 100L510 99z"/>
<path style="fill:#f4c6c3; stroke:none;" d="M536 99L537 100L536 99z"/>
<path style="fill:#e7857d; stroke:none;" d="M407 100L407 103C407.696 101.446 407.696 101.554 407 100z"/>
<path style="fill:#e06258; stroke:none;" d="M424 100L425 101L424 100z"/>
<path style="fill:#e1695f; stroke:none;" d="M535 100L536 101L535 100z"/>
<path style="fill:#e7867e; stroke:none;" d="M552 100L552 103C552.696 101.446 552.696 101.554 552 100z"/>
<path style="fill:#e68078; stroke:none;" d="M426 101L427 102L426 101z"/>
<path style="fill:#f2bcb8; stroke:none;" d="M448 101L449 102L448 101M511 101L512 102L511 101z"/>
<path style="fill:#e98e87; stroke:none;" d="M533 101L534 102L533 101z"/>
<path style="fill:#eda49e; stroke:none;" d="M428 102L429 103L428 102z"/>
<path style="fill:#f0b2ad; stroke:none;" d="M531 102L532 103L531 102z"/>
<path style="fill:#f3c2bf; stroke:none;" d="M430 103L431 104L430 103z"/>
<path style="fill:#f1b7b3; stroke:none;" d="M447 103L448 104L447 103z"/>
<path style="fill:#f1b8b4; stroke:none;" d="M512 103L513 104L512 103z"/>
<path style="fill:#f4c9c6; stroke:none;" d="M529 103L530 104L529 103z"/>
<path style="fill:#e26b62; stroke:none;" d="M431 104L432 105L431 104z"/>
<path style="fill:#e47971; stroke:none;" d="M528 104L529 105L528 104z"/>
<path style="fill:#e57e76; stroke:none;" d="M408.333 105.667C408.278 105.722 408.222 106.778 408.667 106.333C408.722 106.278 408.778 105.222 408.333 105.667z"/>
<path style="fill:#e98f88; stroke:none;" d="M433 105L434 106L433 105z"/>
<path style="fill:#eeaba6; stroke:none;" d="M446 105L447 106L446 105z"/>
<path style="fill:#efaca7; stroke:none;" d="M513 105L514 106L513 105z"/>
<path style="fill:#e98f88; stroke:none;" d="M526 105L527 106L526 105z"/>
<path style="fill:#e57e76; stroke:none;" d="M551.333 105.667C551.278 105.722 551.222 106.778 551.667 106.333C551.722 106.278 551.778 105.222 551.333 105.667z"/>
<path style="fill:#efb0ab; stroke:none;" d="M435 106L436 107L435 106M524 106L525 107L524 106z"/>
<path style="fill:#f6d0ce; stroke:none;" d="M408.333 107.667C408.278 107.722 408.222 108.778 408.667 108.333C408.722 108.278 408.778 107.222 408.333 107.667z"/>
<path style="fill:#f3c2bf; stroke:none;" d="M444 107L445 108L444 107z"/>
<path style="fill:#f3c3bf; stroke:none;" d="M515 107L516 108L515 107z"/>
<path style="fill:#f6d0ce; stroke:none;" d="M551.333 107.667C551.278 107.722 551.222 108.778 551.667 108.333C551.722 108.278 551.778 107.222 551.333 107.667z"/>
<path style="fill:#e06359; stroke:none;" d="M438 108L439 109L438 108z"/>
<path style="fill:#f4c6c3; stroke:none;" d="M439 108C440.506 108.683 441.315 108.826 443 109C441.494 108.317 440.685 108.174 439 108z"/>
<path style="fill:#df5f56; stroke:none;" d="M443 108L444 109L443 108z"/>
<path style="fill:#e06056; stroke:none;" d="M516 108L517 109L516 108z"/>
<path style="fill:#f3c5c1; stroke:none;" d="M517 108C518.506 108.683 519.315 108.826 521 109C519.494 108.317 518.685 108.174 517 108z"/>
<path style="fill:#e06359; stroke:none;" d="M521 108L522 109L521 108z"/>
<path style="fill:#eca19b; stroke:none;" d="M409 111L409 114C409.696 112.446 409.696 112.554 409 111z"/>
<path style="fill:#eda29c; stroke:none;" d="M550.333 111.667C550.278 111.722 550.222 112.778 550.667 112.333C550.722 112.278 550.778 111.222 550.333 111.667z"/>
<path style="fill:#eb9a94; stroke:none;" d="M410 116L410 119C410.696 117.446 410.696 117.554 410 116z"/>
<path style="fill:#eb9b95; stroke:none;" d="M549.333 116.667C549.278 116.722 549.222 117.778 549.667 117.333C549.722 117.278 549.778 116.222 549.333 116.667z"/>
<path style="fill:#ea958e; stroke:none;" d="M411 121L411 124C411.696 122.446 411.696 122.554 411 121z"/>
<path style="fill:#ea958f; stroke:none;" d="M548 121L548 124C548.696 122.446 548.696 122.554 548 121z"/>
<path style="fill:#e98e87; stroke:none;" d="M412 126L412 129C412.696 127.446 412.696 127.554 412 126z"/>
<path style="fill:#e98f88; stroke:none;" d="M547 126L547 129C547.696 127.446 547.696 127.554 547 126z"/>
<path style="fill:#e78780; stroke:none;" d="M413 131L413 134C413.696 132.446 413.696 132.554 413 131z"/>
<path style="fill:#e78881; stroke:none;" d="M546 131L546 134C546.696 132.446 546.696 132.554 546 131z"/>
<path style="fill:#e68179; stroke:none;" d="M414 136L414 139C414.696 137.446 414.696 137.554 414 136z"/>
<path style="fill:#e6817a; stroke:none;" d="M545 136L545 139C545.696 137.446 545.696 137.554 545 136z"/>
<path style="fill:#eda49e; stroke:none;" d="M415 142L415 145C415.696 143.446 415.696 143.554 415 142z"/>
<path style="fill:#eda49f; stroke:none;" d="M544.333 142.667C544.278 142.722 544.222 143.778 544.667 143.333C544.722 143.278 544.778 142.222 544.333 142.667z"/>
<path style="fill:#ec9d97; stroke:none;" d="M416 147L416 150C416.696 148.446 416.696 148.554 416 147z"/>
<path style="fill:#ec9e98; stroke:none;" d="M543.333 147.667C543.278 147.722 543.222 148.778 543.667 148.333C543.722 148.278 543.778 147.222 543.333 147.667z"/>
<path style="fill:#ea9690; stroke:none;" d="M417.333 152.667C417.278 152.722 417.222 153.778 417.667 153.333C417.722 153.278 417.778 152.222 417.333 152.667z"/>
<path style="fill:#ea9791; stroke:none;" d="M542 152L542 155C542.696 153.446 542.696 153.554 542 152z"/>
<path style="fill:#eda49f; stroke:none;" d="M371 155L372 156L371 155z"/>
<path style="fill:#eda5a0; stroke:none;" d="M588 155L589 156L588 155z"/>
<path style="fill:#f3c4c0; stroke:none;" d="M370 157L371 158L370 157z"/>
<path style="fill:#e9908a; stroke:none;" d="M418 157L418 160C418.696 158.446 418.696 158.554 418 157z"/>
<path style="fill:#e9918b; stroke:none;" d="M541 157L541 160C541.696 158.446 541.696 158.554 541 157z"/>
<path style="fill:#df5f55; stroke:none;" d="M585 157L586 158L585 157z"/>
<path style="fill:#f3c5c1; stroke:none;" d="M589 157L590 158L589 157z"/>
<path style="fill:#e16960; stroke:none;" d="M370 158L371 159L370 158z"/>
<path style="fill:#e0645b; stroke:none;" d="M375 158L376 159L375 158z"/>
<path style="fill:#e16960; stroke:none;" d="M584 158L585 159L584 158z"/>
<path style="fill:#e26a61; stroke:none;" d="M589 158L590 159L589 158z"/>
<path style="fill:#e36f66; stroke:none;" d="M376 159L377 160L376 159z"/>
<path style="fill:#e4756d; stroke:none;" d="M583 159L584 160L583 159z"/>
<path style="fill:#e88a83; stroke:none;" d="M369 160L370 161L369 160z"/>
<path style="fill:#e6817a; stroke:none;" d="M377 160L378 161L377 160z"/>
<path style="fill:#e78780; stroke:none;" d="M582 160L583 161L582 160z"/>
<path style="fill:#e88b83; stroke:none;" d="M590 160L591 161L590 160z"/>
<path style="fill:#e9908a; stroke:none;" d="M378 161L379 162L378 161z"/>
<path style="fill:#e99089; stroke:none;" d="M581 161L582 162L581 161z"/>
<path style="fill:#eea9a4; stroke:none;" d="M368 162L369 163L368 162z"/>
<path style="fill:#ec9d97; stroke:none;" d="M379 162L380 163L379 162z"/>
<path style="fill:#e88a83; stroke:none;" d="M419 162L419 165C419.696 163.446 419.696 163.554 419 162z"/>
<path style="fill:#e88b83; stroke:none;" d="M540 162L540 165C540.696 163.446 540.696 163.554 540 162z"/>
<path style="fill:#eda49e; stroke:none;" d="M580 162L581 163L580 162z"/>
<path style="fill:#eeaaa5; stroke:none;" d="M591 162L592 163L591 162z"/>
<path style="fill:#eeaba6; stroke:none;" d="M380 163L381 164L380 163z"/>
<path style="fill:#efb0ab; stroke:none;" d="M579 163L580 164L579 163z"/>
<path style="fill:#f4c9c6; stroke:none;" d="M367 164L368 165L367 164z"/>
<path style="fill:#f1b7b2; stroke:none;" d="M381 164L382 165L381 164z"/>
<path style="fill:#f2bcb8; stroke:none;" d="M578 164L579 165L578 164z"/>
<path style="fill:#f4cac7; stroke:none;" d="M592 164L593 165L592 164z"/>
<path style="fill:#e26e65; stroke:none;" d="M367 165L368 166L367 165z"/>
<path style="fill:#f3c2bf; stroke:none;" d="M382 165L383 166L382 165z"/>
<path style="fill:#f4c7c4; stroke:none;" d="M577 165L578 166L577 165z"/>
<path style="fill:#e36f66; stroke:none;" d="M592 165L593 166L592 165z"/>
<path style="fill:#f5ccc9; stroke:none;" d="M383 166L384 167L383 166z"/>
<path style="fill:#e98f88; stroke:none;" d="M366 167L367 168L366 167z"/>
<path style="fill:#e6837c; stroke:none;" d="M420 167L420 170C420.696 168.446 420.696 168.554 420 167z"/>
<path style="fill:#e7847c; stroke:none;" d="M539 167L539 170C539.696 168.446 539.696 168.554 539 167z"/>
<path style="fill:#e99089; stroke:none;" d="M593 167L594 168L593 167z"/>
<path style="fill:#efaea9; stroke:none;" d="M365 169L366 170L365 169z"/>
<path style="fill:#efafaa; stroke:none;" d="M594 169L595 170L594 169z"/>
<path style="fill:#f7d9d6; stroke:none;" d="M300.667 171.333C300.222 171.778 301.278 171.722 301.333 171.667C301.778 171.222 300.722 171.278 300.667 171.333z"/>
<path style="fill:#f0b4b0; stroke:none;" d="M658.667 171.333C658.222 171.778 659.278 171.722 659.333 171.667C659.778 171.222 658.722 171.278 658.667 171.333z"/>
<path style="fill:#e37067; stroke:none;" d="M300 172L301 173L300 172z"/>
<path style="fill:#e78780; stroke:none;" d="M303.667 172.333C303.222 172.778 304.278 172.722 304.333 172.667C304.778 172.222 303.722 172.278 303.667 172.333z"/>
<path style="fill:#f8dcda; stroke:none;" d="M305.667 172.333C305.222 172.778 306.278 172.722 306.333 172.667C306.778 172.222 305.722 172.278 305.667 172.333z"/>
<path style="fill:#e3746c; stroke:none;" d="M364 172L365 173L364 172z"/>
<path style="fill:#e06157; stroke:none;" d="M388 172L389 173L388 172z"/>
<path style="fill:#e57c74; stroke:none;" d="M421 172L421 175C421.696 173.446 421.696 173.554 421 172z"/>
<path style="fill:#e57d75; stroke:none;" d="M538 172L538 175C538.696 173.446 538.696 173.554 538 172z"/>
<path style="fill:#e1665d; stroke:none;" d="M571 172L572 173L571 172z"/>
<path style="fill:#e4756d; stroke:none;" d="M595 172L596 173L595 172z"/>
<path style="fill:#ea958f; stroke:none;" d="M654 172C655.248 172.685 655.548 172.749 657 173C655.752 172.315 655.452 172.251 654 172z"/>
<path style="fill:#e37168; stroke:none;" d="M659 172L660 173L659 172z"/>
<path style="fill:#f0b5b0; stroke:none;" d="M300 173L301 174L300 173z"/>
<path style="fill:#e0645a; stroke:none;" d="M308 173L309 174L308 173z"/>
<path style="fill:#f2c0bc; stroke:none;" d="M309.667 173.333C309.222 173.778 310.278 173.722 310.333 173.667C310.778 173.222 309.722 173.278 309.667 173.333z"/>
<path style="fill:#e26c63; stroke:none;" d="M389 173L390 174L389 173z"/>
<path style="fill:#e37168; stroke:none;" d="M570 173L571 174L570 173z"/>
<path style="fill:#eda49e; stroke:none;" d="M649.667 173.333C649.222 173.778 650.278 173.722 650.333 173.667C650.778 173.222 649.722 173.278 649.667 173.333z"/>
<path style="fill:#e37269; stroke:none;" d="M651 173L652 174L651 173z"/>
<path style="fill:#f1b6b1; stroke:none;" d="M659 173L660 174L659 173z"/>
<path style="fill:#e37269; stroke:none;" d="M313 174L314 175L313 174z"/>
<path style="fill:#f5cecb; stroke:none;" d="M314.667 174.333C314.222 174.778 315.278 174.722 315.333 174.667C315.778 174.222 314.722 174.278 314.667 174.333z"/>
<path style="fill:#ea948d; stroke:none;" d="M363 174L364 175L363 174z"/>
<path style="fill:#e4776f; stroke:none;" d="M390 174L391 175L390 174z"/>
<path style="fill:#e57d75; stroke:none;" d="M569 174L570 175L569 174z"/>
<path style="fill:#ea958e; stroke:none;" d="M596 174L597 175L596 174z"/>
<path style="fill:#f0b2ad; stroke:none;" d="M645 174L646 175L645 174z"/>
<path style="fill:#dc4f44; stroke:none;" d="M646.667 174.333C646.222 174.778 647.278 174.722 647.333 174.667C647.778 174.222 646.722 174.278 646.667 174.333z"/>
<path style="fill:#e26b62; stroke:none;" d="M301 175L302 176L301 175z"/>
<path style="fill:#eeaaa5; stroke:none;" d="M318.667 175.333C318.222 175.778 319.278 175.722 319.333 175.667C319.778 175.222 318.722 175.278 318.667 175.333z"/>
<path style="fill:#e7847c; stroke:none;" d="M391 175L392 176L391 175z"/>
<path style="fill:#e88a83; stroke:none;" d="M568 175L569 176L568 175z"/>
<path style="fill:#e78780; stroke:none;" d="M640 175C641.248 175.685 641.548 175.749 643 176C641.752 175.315 641.451 175.251 640 175z"/>
<path style="fill:#e26c63; stroke:none;" d="M658 175L659 176L658 175z"/>
<path style="fill:#efb0ab; stroke:none;" d="M301 176L302 177L301 176z"/>
<path style="fill:#e78780; stroke:none;" d="M322 176C323.248 176.685 323.548 176.749 325 177C323.752 176.315 323.452 176.251 322 176z"/>
<path style="fill:#f0b3af; stroke:none;" d="M362 176L363 177L362 176z"/>
<path style="fill:#ea958f; stroke:none;" d="M392 176L393 177L392 176z"/>
<path style="fill:#ea958e; stroke:none;" d="M567 176L568 177L567 176z"/>
<path style="fill:#f0b4b0; stroke:none;" d="M597 176L598 177L597 176z"/>
<path style="fill:#ea958f; stroke:none;" d="M635 176C636.248 176.685 636.548 176.749 638 177C636.752 176.315 636.452 176.251 635 176z"/>
<path style="fill:#f0b1ac; stroke:none;" d="M658 176L659 177L658 176z"/>
<path style="fill:#ea958f; stroke:none;" d="M327 177C328.248 177.685 328.548 177.749 330 178C328.752 177.315 328.452 177.251 327 177z"/>
<path style="fill:#ec9f9a; stroke:none;" d="M393 177L394 178L393 177z"/>
<path style="fill:#eda6a1; stroke:none;" d="M566 177L567 178L566 177z"/>
<path style="fill:#eda49e; stroke:none;" d="M630.667 177.333C630.222 177.778 631.278 177.722 631.333 177.667C631.778 177.222 630.722 177.278 630.667 177.333z"/>
<path style="fill:#dc4f44; stroke:none;" d="M632.667 177.333C632.222 177.778 633.278 177.722 633.333 177.667C633.778 177.222 632.722 177.278 632.667 177.333z"/>
<path style="fill:#e1655c; stroke:none;" d="M302 178L303 179L302 178z"/>
<path style="fill:#eda49e; stroke:none;" d="M332 178C333.248 178.685 333.548 178.749 335 179C333.752 178.315 333.452 178.251 332 178z"/>
<path style="fill:#efada8; stroke:none;" d="M394 178L395 179L394 178z"/>
<path style="fill:#ec9f9a; stroke:none;" d="M422 178L422 181C422.696 179.446 422.696 179.554 422 178M537 178L537 181C537.696 179.446 537.696 179.554 537 178z"/>
<path style="fill:#f0b3ae; stroke:none;" d="M565 178L566 179L565 178z"/>
<path style="fill:#e78780; stroke:none;" d="M626 178C627.248 178.685 627.548 178.749 629 179C627.752 178.315 627.451 178.251 626 178z"/>
<path style="fill:#e1665d; stroke:none;" d="M657 178L658 179L657 178z"/>
<path style="fill:#eeaaa5; stroke:none;" d="M302 179L303 180L302 179z"/>
<path style="fill:#e88b84; stroke:none;" d="M336.667 179.333C336.222 179.778 337.278 179.722 337.333 179.667C337.778 179.222 336.722 179.278 336.667 179.333z"/>
<path style="fill:#e37269; stroke:none;" d="M361 179L362 180L361 179z"/>
<path style="fill:#f2bdb9; stroke:none;" d="M395 179L396 180L395 179M564 179L565 180L564 179z"/>
<path style="fill:#e3726a; stroke:none;" d="M598 179L599 180L598 179z"/>
<path style="fill:#e88b84; stroke:none;" d="M621.667 179.333C621.222 179.778 622.278 179.722 622.333 179.667C622.778 179.222 621.722 179.278 621.667 179.333z"/>
<path style="fill:#eeaaa5; stroke:none;" d="M657 179L658 180L657 179z"/>
<path style="fill:#eb9992; stroke:none;" d="M341.667 180.333C341.222 180.778 342.278 180.722 342.333 180.667C342.778 180.222 341.722 180.278 341.667 180.333z"/>
<path style="fill:#f3c1be; stroke:none;" d="M360 180L361 181L360 180z"/>
<path style="fill:#f4c9c6; stroke:none;" d="M396 180L397 181L396 180M563 180L564 181L563 180z"/>
<path style="fill:#f3c3bf; stroke:none;" d="M599 180L600 181L599 180z"/>
<path style="fill:#eb9992; stroke:none;" d="M616 180C617.248 180.685 617.548 180.749 619 181C617.752 180.315 617.452 180.251 616 180z"/>
<path style="fill:#e06056; stroke:none;" d="M303 181L304 182L303 181z"/>
<path style="fill:#eda5a0; stroke:none;" d="M346.667 181.333C346.222 181.778 347.278 181.722 347.333 181.667C347.778 181.222 346.722 181.278 346.667 181.333z"/>
<path style="fill:#f4c6c2; stroke:none;" d="M359 181L360 182L359 181z"/>
<path style="fill:#f4c8c5; stroke:none;" d="M600 181L601 182L600 181z"/>
<path style="fill:#eda5a0; stroke:none;" d="M611.667 181.333C611.222 181.778 612.278 181.722 612.333 181.667C612.778 181.222 611.722 181.278 611.667 181.333z"/>
<path style="fill:#dc4c41; stroke:none;" d="M613.667 181.333C613.222 181.778 614.278 181.722 614.333 181.667C614.778 181.222 613.722 181.278 613.667 181.333z"/>
<path style="fill:#e06056; stroke:none;" d="M656 181L657 182L656 181z"/>
<path style="fill:#eda5a0; stroke:none;" d="M303 182L304 183L303 182z"/>
<path style="fill:#e7867e; stroke:none;" d="M350.667 182.333C350.222 182.778 351.278 182.722 351.333 182.667C351.778 182.222 350.722 182.278 350.667 182.333z"/>
<path style="fill:#f9dfdd; stroke:none;" d="M352.667 182.333C352.222 182.778 353.278 182.722 353.333 182.667C353.778 182.222 352.722 182.278 352.667 182.333z"/>
<path style="fill:#e57c74; stroke:none;" d="M358 182L359 183L358 182z"/>
<path style="fill:#e57d75; stroke:none;" d="M601 182L602 183L601 182z"/>
<path style="fill:#e7867e; stroke:none;" d="M607.667 182.333C607.222 182.778 608.278 182.722 608.333 182.667C608.778 182.222 607.722 182.278 607.667 182.333z"/>
<path style="fill:#eda5a0; stroke:none;" d="M656 182L657 183L656 182z"/>
<path style="fill:#eb9992; stroke:none;" d="M423 183L423 186C423.696 184.446 423.696 184.554 423 183z"/>
<path style="fill:#eb9a93; stroke:none;" d="M536.333 183.667C536.278 183.722 536.222 184.778 536.667 184.333C536.722 184.278 536.778 183.222 536.333 183.667z"/>
<path style="fill:#eca09a; stroke:none;" d="M304 185L305 186L304 185z"/>
<path style="fill:#eca19b; stroke:none;" d="M655 185L656 186L655 185z"/>
<path style="fill:#df5d53; stroke:none;" d="M558 186L559 187L558 186z"/>
<path style="fill:#e06359; stroke:none;" d="M402 187L403 188L402 187z"/>
<path style="fill:#e1685e; stroke:none;" d="M557 187L558 188L557 187z"/>
<path style="fill:#eb9b95; stroke:none;" d="M305 188L306 189L305 188z"/>
<path style="fill:#e26e65; stroke:none;" d="M403 188L404 189L403 188z"/>
<path style="fill:#ea938c; stroke:none;" d="M424.333 188.667C424.278 188.722 424.222 189.778 424.667 189.333C424.722 189.278 424.778 188.222 424.333 188.667z"/>
<path style="fill:#ea948d; stroke:none;" d="M535 188L535 191C535.696 189.446 535.696 189.554 535 188z"/>
<path style="fill:#e3726a; stroke:none;" d="M556 188L557 189L556 188z"/>
<path style="fill:#eb9c96; stroke:none;" d="M654 188L655 189L654 188z"/>
<path style="fill:#e57a72; stroke:none;" d="M404 189L405 190L404 189z"/>
<path style="fill:#e67f77; stroke:none;" d="M555 189L556 190L555 189z"/>
<path style="fill:#e7867f; stroke:none;" d="M405 190L406 191L405 190z"/>
<path style="fill:#e88c85; stroke:none;" d="M554 190L555 191L554 190z"/>
<path style="fill:#ea958f; stroke:none;" d="M306 191L307 192L306 191z"/>
<path style="fill:#eb9a94; stroke:none;" d="M406 191L407 192L406 191z"/>
<path style="fill:#eb9a93; stroke:none;" d="M553 191L554 192L553 191z"/>
<path style="fill:#ea9690; stroke:none;" d="M653 191L654 192L653 191z"/>
<path style="fill:#eda39d; stroke:none;" d="M407 192L408 193L407 192z"/>
<path style="fill:#eea9a3; stroke:none;" d="M552 192L553 193L552 192z"/>
<path style="fill:#f0b5b0; stroke:none;" d="M408 193L409 194L408 193z"/>
<path style="fill:#e7867e; stroke:none;" d="M425 193L425 197C425.71 195.24 425.71 194.76 425 193z"/>
<path style="fill:#e7867f; stroke:none;" d="M534 193L534 197C534.71 195.241 534.71 194.759 534 193z"/>
<path style="fill:#f1bbb7; stroke:none;" d="M551 193L552 194L551 193z"/>
<path style="fill:#e9908a; stroke:none;" d="M307 194L308 195L307 194z"/>
<path style="fill:#f3c1be; stroke:none;" d="M409 194L410 195L409 194M550 194L551 195L550 194z"/>
<path style="fill:#e9908a; stroke:none;" d="M652 194L653 195L652 194z"/>
<path style="fill:#f5ccc9; stroke:none;" d="M410 195L411 196L410 195M549 195L550 196L549 195z"/>
<path style="fill:#e88b84; stroke:none;" d="M308 197L309 198L308 197M651 197L652 198L651 197z"/>
<path style="fill:#f3c2bf; stroke:none;" d="M424 198L425 199L424 198z"/>
<path style="fill:#f3c4c0; stroke:none;" d="M535 198L536 199L535 198z"/>
<path style="fill:#e7867f; stroke:none;" d="M309 200L310 201L309 200M650 200L651 201L650 200z"/>
<path style="fill:#f5cbc8; stroke:none;" d="M309 201L310 202L309 201z"/>
<path style="fill:#e67f77; stroke:none;" d="M416 201L417 202L416 201z"/>
<path style="fill:#fae7e5; stroke:none;" d="M417 201C418.506 201.683 419.315 201.826 421 202C419.494 201.317 418.685 201.174 417 201z"/>
<path style="fill:#e6817a; stroke:none;" d="M421 201L422 202L421 201M538 201L539 202L538 201z"/>
<path style="fill:#fae7e5; stroke:none;" d="M539 201C540.506 201.683 541.315 201.826 543 202C541.494 201.317 540.685 201.174 539 201z"/>
<path style="fill:#e57e76; stroke:none;" d="M543 201L544 202L543 201z"/>
<path style="fill:#f5cbc8; stroke:none;" d="M650 201L651 202L650 201z"/>
<path style="fill:#e6817a; stroke:none;" d="M310 203L311 204L310 203z"/>
<path style="fill:#e6827b; stroke:none;" d="M649 203L650 204L649 203z"/>
<path style="fill:#f4c6c3; stroke:none;" d="M310 204L311 205L310 204z"/>
<path style="fill:#f4c7c4; stroke:none;" d="M649 204L650 205L649 204z"/>
<path style="fill:#e57c74; stroke:none;" d="M311 206L312 207L311 206M648 206L649 207L648 206z"/>
<path style="fill:#f3c1bd; stroke:none;" d="M311 207L312 208L311 207z"/>
<path style="fill:#f3c1be; stroke:none;" d="M648 207L649 208L648 207z"/>
<path style="fill:#e4776e; stroke:none;" d="M312 209L313 210L312 209z"/>
<path style="fill:#e4776f; stroke:none;" d="M647 209L648 210L647 209z"/>
<path style="fill:#f2bcb8; stroke:none;" d="M312 210L313 211L312 210M647 210L648 211L647 210z"/>
<path style="fill:#e37269; stroke:none;" d="M313 212L314 213L313 212z"/>
<path style="fill:#e3726a; stroke:none;" d="M646 212L647 213L646 212z"/>
<path style="fill:#f1b7b2; stroke:none;" d="M313 213L314 214L313 213z"/>
<path style="fill:#f1b7b3; stroke:none;" d="M646 213L647 214L646 213z"/>
<path style="fill:#e26d64; stroke:none;" d="M314 215L315 216L314 215z"/>
<path style="fill:#e26e65; stroke:none;" d="M645 215L646 216L645 215z"/>
<path style="fill:#f0b2ad; stroke:none;" d="M314 216L315 217L314 216z"/>
<path style="fill:#f0b3ae; stroke:none;" d="M645 216L646 217L645 216z"/>
<path style="fill:#e1685e; stroke:none;" d="M315 218L316 219L315 218z"/>
<path style="fill:#e1695f; stroke:none;" d="M644 218L645 219L644 218z"/>
<path style="fill:#efada8; stroke:none;" d="M315 219L316 220L315 219z"/>
<path style="fill:#efaea9; stroke:none;" d="M644 219L645 220L644 219z"/>
<path style="fill:#e06258; stroke:none;" d="M316 221L317 222L316 221z"/>
<path style="fill:#e06359; stroke:none;" d="M643 221L644 222L643 221z"/>
<path style="fill:#eea7a1; stroke:none;" d="M316 222L317 223L316 222z"/>
<path style="fill:#eea8a2; stroke:none;" d="M643 222L644 223L643 222z"/>
<path style="fill:#df5d53; stroke:none;" d="M317 224L318 225L317 224z"/>
<path style="fill:#df5e54; stroke:none;" d="M642 224L643 225L642 224z"/>
<path style="fill:#eda29c; stroke:none;" d="M317 225L318 226L317 225z"/>
<path style="fill:#eda39d; stroke:none;" d="M642 225L643 226L642 225z"/>
<path style="fill:#eb9c96; stroke:none;" d="M318 228L319 229L318 228M641 228L642 229L641 228z"/>
<path style="fill:#f0b4b0; stroke:none;" d="M318 232L319 233L318 232z"/>
<path style="fill:#f1b6b1; stroke:none;" d="M641 232L642 233L641 232z"/>
<path style="fill:#e0645a; stroke:none;" d="M318 233L319 234L318 233z"/>
<path style="fill:#e1655c; stroke:none;" d="M641 233L642 234L641 233z"/>
<path style="fill:#f1b8b4; stroke:none;" d="M317 234L318 235L317 234z"/>
<path style="fill:#f2bcb8; stroke:none;" d="M642 234L643 235L642 234z"/>
<path style="fill:#f4c6c2; stroke:none;" d="M316 235L317 236L316 235z"/>
<path style="fill:#f4c7c4; stroke:none;" d="M643 235L644 236L643 235z"/>
<path style="fill:#e7847c; stroke:none;" d="M315 236L316 237L315 236M644 236L645 237L644 236z"/>
<path style="fill:#e78780; stroke:none;" d="M313 237L314 238L313 237z"/>
<path style="fill:#e47971; stroke:none;" d="M646 237L647 238L646 237M311 238L312 239L311 238z"/>
<path style="fill:#e26b62; stroke:none;" d="M648 238L649 239L648 238M309 239L310 240L309 239z"/>
<path style="fill:#df5d53; stroke:none;" d="M650 239L651 240L650 239z"/>
<path style="fill:#f2c0bc; stroke:none;" d="M651 239L652 240L651 239M306 240L307 241L306 240z"/>
<path style="fill:#f0b2ad; stroke:none;" d="M653 240L654 241L653 240M304 241L305 242L304 241z"/>
<path style="fill:#eda49e; stroke:none;" d="M655 241L656 242L655 241M302 242L303 243L302 242z"/>
<path style="fill:#ea958f; stroke:none;" d="M657 242L658 243L657 242M300 243L301 244L300 243z"/>
<path style="fill:#e78780; stroke:none;" d="M659 243L660 244L659 243M298 244L299 245L298 244z"/>
<path style="fill:#e47971; stroke:none;" d="M661 244L662 245L661 244M296 245L297 246L296 245z"/>
<path style="fill:#e26b62; stroke:none;" d="M663 245L664 246L663 245z"/>
<path style="fill:#e7847c; stroke:none;" d="M294 246L295 247L294 246M665 246L666 247L665 246z"/>
<path style="fill:#e26e65; stroke:none;" d="M295 247L296 248L295 247z"/>
<path style="fill:#e1685e; stroke:none;" d="M664 247L665 248L664 247z"/>
<path style="fill:#eb9c96; stroke:none;" d="M296 248L297 249L296 248z"/>
<path style="fill:#e98e87; stroke:none;" d="M663 248L664 249L663 248z"/>
<path style="fill:#f1b8b4; stroke:none;" d="M297 249L298 250L297 249z"/>
<path style="fill:#f0b2ad; stroke:none;" d="M662 249L663 250L662 249z"/>
<path style="fill:#e06359; stroke:none;" d="M300 251L301 252L300 251z"/>
<path style="fill:#df5e54; stroke:none;" d="M659 251L660 252L659 251z"/>
<path style="fill:#e98e87; stroke:none;" d="M301 252L302 253L301 252z"/>
<path style="fill:#e68078; stroke:none;" d="M658 252L659 253L658 252z"/>
<path style="fill:#f0b3af; stroke:none;" d="M302 253L303 254L302 253z"/>
<path style="fill:#efada8; stroke:none;" d="M657 253L658 254L657 253z"/>
<path style="fill:#e57d75; stroke:none;" d="M306 256L307 257L306 256z"/>
<path style="fill:#e4776e; stroke:none;" d="M653 256L654 257L653 256z"/>
<path style="fill:#eeaaa5; stroke:none;" d="M307 257L308 258L307 257z"/>
<path style="fill:#eb9c96; stroke:none;" d="M652 257L653 258L652 257z"/>
<path style="fill:#f5ccc9; stroke:none;" d="M308 258L309 259L308 258z"/>
<path style="fill:#f4c7c4; stroke:none;" d="M651 258L652 259L651 258z"/>
<path style="fill:#e4776f; stroke:none;" d="M311 260L312 261L311 260z"/>
<path style="fill:#e37269; stroke:none;" d="M648 260L649 261L648 260z"/>
<path style="fill:#eb9c96; stroke:none;" d="M312 261L313 262L312 261z"/>
<path style="fill:#e98e87; stroke:none;" d="M647 261L648 262L647 261z"/>
<path style="fill:#f3c2bf; stroke:none;" d="M313 262L314 263L313 262z"/>
<path style="fill:#f2bcb8; stroke:none;" d="M646 262L647 263L646 262z"/>
<path style="fill:#e26d64; stroke:none;" d="M316 264L317 265L316 264z"/>
<path style="fill:#e1675e; stroke:none;" d="M643 264L644 265L643 264z"/>
<path style="fill:#eb9c96; stroke:none;" d="M317 265L318 266L317 265z"/>
<path style="fill:#e98e87; stroke:none;" d="M642 265L643 266L642 265z"/>
<path style="fill:#f1b7b3; stroke:none;" d="M318 266L319 267L318 266z"/>
<path style="fill:#f0b2ad; stroke:none;" d="M641 266L642 267L641 266z"/>
<path style="fill:#e06359; stroke:none;" d="M321 268L322 269L321 268z"/>
<path style="fill:#df5d53; stroke:none;" d="M638 268L639 269L638 268z"/>
<path style="fill:#e98e87; stroke:none;" d="M322 269L323 270L322 269z"/>
<path style="fill:#e68078; stroke:none;" d="M637 269L638 270L637 269z"/>
<path style="fill:#f0b3ae; stroke:none;" d="M323 270L324 271L323 270z"/>
<path style="fill:#efaca7; stroke:none;" d="M636 270L637 271L636 270z"/>
<path style="fill:#f5cbc7; stroke:none;" d="M635 271L636 272L635 271z"/>
<path style="fill:#e57c74; stroke:none;" d="M327 273L328 274L327 273z"/>
<path style="fill:#e4766d; stroke:none;" d="M632 273L633 274L632 273z"/>
<path style="fill:#eeaaa5; stroke:none;" d="M328 274L329 275L328 274z"/>
<path style="fill:#eb9c96; stroke:none;" d="M631 274L632 275L631 274z"/>
<path style="fill:#f5cbc8; stroke:none;" d="M329 275L330 276L329 275z"/>
<path style="fill:#f4c6c3; stroke:none;" d="M630 275L631 276L630 275z"/>
<path style="fill:#e37168; stroke:none;" d="M332 277L333 278L332 277z"/>
<path style="fill:#e26b62; stroke:none;" d="M627 277L628 278L627 277z"/>
<path style="fill:#eb9c96; stroke:none;" d="M333 278L334 279L333 278z"/>
<path style="fill:#e98e87; stroke:none;" d="M626 278L627 279L626 278z"/>
<path style="fill:#f3c2bf; stroke:none;" d="M334 279L335 280L334 279z"/>
<path style="fill:#f2bcb8; stroke:none;" d="M625 279L626 280L625 279z"/>
<path style="fill:#e26d64; stroke:none;" d="M337 281L338 282L337 281z"/>
<path style="fill:#e1675e; stroke:none;" d="M622 281L623 282L622 281z"/>
<path style="fill:#ea958f; stroke:none;" d="M338 282L339 283L338 282z"/>
<path style="fill:#e78780; stroke:none;" d="M621 282L622 283L621 282z"/>
<path style="fill:#f1b7b2; stroke:none;" d="M339 283L340 284L339 283z"/>
<path style="fill:#f0b1ac; stroke:none;" d="M620 283L621 284L620 283z"/>
<path style="fill:#e06258; stroke:none;" d="M342 285L343 286L342 285z"/>
<path style="fill:#df5d53; stroke:none;" d="M617 285L618 286L617 285z"/>
<path style="fill:#e98e87; stroke:none;" d="M343 286L344 287L343 286z"/>
<path style="fill:#e68078; stroke:none;" d="M616 286L617 287L616 286z"/>
<path style="fill:#f0b3ae; stroke:none;" d="M344 287L345 288L344 287z"/>
<path style="fill:#efaca7; stroke:none;" d="M615 287L616 288L615 287z"/>
<path style="fill:#f5cbc7; stroke:none;" d="M614 288L615 289L614 288z"/>
<path style="fill:#e57c74; stroke:none;" d="M348 290L349 291L348 290z"/>
<path style="fill:#e4756d; stroke:none;" d="M611 290L612 291L611 290z"/>
<path style="fill:#eeaaa5; stroke:none;" d="M349 291L350 292L349 291z"/>
<path style="fill:#eb9c96; stroke:none;" d="M610 291L611 292L610 291z"/>
<path style="fill:#f5cbc8; stroke:none;" d="M350 292L351 293L350 292z"/>
<path style="fill:#f4c6c3; stroke:none;" d="M609 292L610 293L609 292z"/>
<path style="fill:#e37168; stroke:none;" d="M353 294L354 295L353 294z"/>
<path style="fill:#e26a61; stroke:none;" d="M606 294L607 295L606 294z"/>
<path style="fill:#eb9c96; stroke:none;" d="M354 295L355 296L354 295z"/>
<path style="fill:#e98e87; stroke:none;" d="M605 295L606 296L605 295z"/>
<path style="fill:#f3c1be; stroke:none;" d="M355 296L356 297L355 296z"/>
<path style="fill:#f2bcb8; stroke:none;" d="M604 296L605 297L604 296z"/>
<path style="fill:#e26c63; stroke:none;" d="M358 298L359 299L358 298z"/>
<path style="fill:#e1665d; stroke:none;" d="M601 298L602 299L601 298z"/>
<path style="fill:#ea958f; stroke:none;" d="M359 299L360 300L359 299z"/>
<path style="fill:#e78780; stroke:none;" d="M600 299L601 300L600 299z"/>
<path style="fill:#f1b7b2; stroke:none;" d="M360 300L361 301L360 300z"/>
<path style="fill:#f0b1ac; stroke:none;" d="M599 300L600 301L599 300z"/>
<path style="fill:#e06258; stroke:none;" d="M363 302L364 303L363 302z"/>
<path style="fill:#e98e87; stroke:none;" d="M364 303L365 304L364 303z"/>
<path style="fill:#e68078; stroke:none;" d="M595 303L596 304L595 303z"/>
<path style="fill:#eeaba6; stroke:none;" d="M365 304L366 305L365 304z"/>
<path style="fill:#eda49f; stroke:none;" d="M594 304L595 305L594 304z"/>
<path style="fill:#f4cac7; stroke:none;" d="M593 305L594 306L593 305z"/>
<path style="fill:#e57c74; stroke:none;" d="M369 307L370 308L369 307z"/>
<path style="fill:#e4756d; stroke:none;" d="M590 307L591 308L590 307z"/>
<path style="fill:#eeaaa5; stroke:none;" d="M370 308L371 309L370 308z"/>
<path style="fill:#eb9c96; stroke:none;" d="M589 308L590 309L589 308z"/>
<path style="fill:#f5cbc8; stroke:none;" d="M371 309L372 310L371 309z"/>
<path style="fill:#f4c6c2; stroke:none;" d="M588 309L589 310L588 309z"/>
<path style="fill:#e37067; stroke:none;" d="M374 311L375 312L374 311z"/>
<path style="fill:#e26a61; stroke:none;" d="M585 311L586 312L585 311z"/>
<path style="fill:#eb9c96; stroke:none;" d="M375 312L376 313L375 312z"/>
<path style="fill:#e98e87; stroke:none;" d="M584 312L585 313L584 312z"/>
<path style="fill:#f3c1be; stroke:none;" d="M376 313L377 314L376 313z"/>
<path style="fill:#f2bcb8; stroke:none;" d="M583 313L584 314L583 313z"/>
<path style="fill:#e26b62; stroke:none;" d="M379 315L380 316L379 315z"/>
<path style="fill:#e1665d; stroke:none;" d="M580 315L581 316L580 315z"/>
<path style="fill:#e98e87; stroke:none;" d="M380 316L381 317L380 316z"/>
<path style="fill:#e68078; stroke:none;" d="M579 316L580 317L579 316z"/>
<path style="fill:#f1b6b1; stroke:none;" d="M381 317L382 318L381 317z"/>
<path style="fill:#efb0ab; stroke:none;" d="M578 317L579 318L578 317z"/>
<path style="fill:#e06157; stroke:none;" d="M384 319L385 320L384 319z"/>
<path style="fill:#e98e87; stroke:none;" d="M385 320L386 321L385 320z"/>
<path style="fill:#e68078; stroke:none;" d="M574 320L575 321L574 320z"/>
<path style="fill:#eeaaa5; stroke:none;" d="M386 321L387 322L386 321z"/>
<path style="fill:#eda49e; stroke:none;" d="M573 321L574 322L573 321z"/>
<path style="fill:#f5cdca; stroke:none;" d="M387 322L388 323L387 322M572 322L573 323L572 322z"/>
<path style="fill:#efaca7; stroke:none;" d="M389 324L390 325L389 324z"/>
<path style="fill:#efaea9; stroke:none;" d="M570 324L571 325L570 324z"/>
<path style="fill:#e9908a; stroke:none;" d="M390 326L390 329C390.696 327.446 390.696 327.554 390 326z"/>
<path style="fill:#e9928b; stroke:none;" d="M569 326L569 329C569.696 327.446 569.696 327.554 569 326z"/>
<path style="fill:#df5f56; stroke:none;" d="M569 329L570 330L569 329z"/>
<path style="fill:#eca19b; stroke:none;" d="M389 331L390 332L389 331z"/>
<path style="fill:#eda29c; stroke:none;" d="M570 331L571 332L570 331z"/>
<path style="fill:#e98e87; stroke:none;" d="M388 334L389 335L388 334z"/>
<path style="fill:#e98f88; stroke:none;" d="M571 334L572 335L571 334z"/>
<path style="fill:#f4c9c6; stroke:none;" d="M387 336L388 337L387 336z"/>
<path style="fill:#f4cac7; stroke:none;" d="M572 336L573 337L572 336z"/>
<path style="fill:#e57c74; stroke:none;" d="M387 337L388 338L387 337M572 337L573 338L572 337z"/>
<path style="fill:#f1b6b1; stroke:none;" d="M386 339L387 340L386 339z"/>
<path style="fill:#f1b7b2; stroke:none;" d="M573 339L574 340L573 339z"/>
<path style="fill:#e16960; stroke:none;" d="M386 340L387 341L386 340z"/>
<path style="fill:#e26a61; stroke:none;" d="M573 340L574 341L573 340z"/>
<path style="fill:#eda49e; stroke:none;" d="M385 342L386 343L385 342z"/>
<path style="fill:#eda49f; stroke:none;" d="M574 342L575 343L574 342z"/>
<path style="fill:#e9918b; stroke:none;" d="M384 345L385 346L384 345M575 345L576 346L575 345z"/>
<path style="fill:#dc4e43; stroke:none;" d="M464 346C465.248 346.685 465.549 346.749 467 347C465.752 346.315 465.452 346.251 464 346M493 346C494.248 346.685 494.549 346.749 496 347C494.752 346.315 494.452 346.251 493 346z"/>
<path style="fill:#f5cbc8; stroke:none;" d="M383 347L384 348L383 347z"/>
<path style="fill:#e6837c; stroke:none;" d="M459.667 347.333C459.222 347.778 460.278 347.722 460.333 347.667C460.778 347.222 459.722 347.278 459.667 347.333z"/>
<path style="fill:#f5cecb; stroke:none;" d="M461.667 347.333C461.222 347.778 462.278 347.722 462.333 347.667C462.778 347.222 461.722 347.278 461.667 347.333z"/>
<path style="fill:#eb9892; stroke:none;" d="M469 347L470 348L469 347M490 347L491 348L490 347z"/>
<path style="fill:#eea9a3; stroke:none;" d="M497.667 347.333C497.222 347.778 498.278 347.722 498.333 347.667C498.778 347.222 497.722 347.278 497.667 347.333z"/>
<path style="fill:#df5e54; stroke:none;" d="M499.667 347.333C499.222 347.778 500.278 347.722 500.333 347.667C500.778 347.222 499.722 347.278 499.667 347.333z"/>
<path style="fill:#f5cbc8; stroke:none;" d="M576 347L577 348L576 347z"/>
<path style="fill:#e57e76; stroke:none;" d="M383 348L384 349L383 348z"/>
<path style="fill:#e37269; stroke:none;" d="M453 348C454.248 348.685 454.548 348.749 456 349C454.752 348.315 454.452 348.251 453 348z"/>
<path style="fill:#f9e3e1; stroke:none;" d="M456.667 348.333C456.222 348.778 457.278 348.722 457.333 348.667C457.778 348.222 456.722 348.278 456.667 348.333z"/>
<path style="fill:#e98e87; stroke:none;" d="M471 348L472 349L471 348z"/>
<path style="fill:#e68078; stroke:none;" d="M488 348L489 349L488 348z"/>
<path style="fill:#eda49e; stroke:none;" d="M503.667 348.333C503.222 348.778 504.278 348.722 504.333 348.667C504.778 348.222 503.722 348.278 503.667 348.333z"/>
<path style="fill:#df5d53; stroke:none;" d="M505.667 348.333C505.222 348.778 506.278 348.722 506.333 348.667C506.778 348.222 505.722 348.278 505.667 348.333z"/>
<path style="fill:#e67f77; stroke:none;" d="M576 348L577 349L576 348z"/>
<path style="fill:#e9908a; stroke:none;" d="M448.667 349.333C448.222 349.778 449.278 349.722 449.333 349.667C449.778 349.222 448.722 349.278 448.667 349.333z"/>
<path style="fill:#f8dcda; stroke:none;" d="M450.667 349.333C450.222 349.778 451.278 349.722 451.333 349.667C451.778 349.222 450.722 349.278 450.667 349.333z"/>
<path style="fill:#efaea9; stroke:none;" d="M472 349L473 350L472 349M487 349L488 350L487 349z"/>
<path style="fill:#e9908a; stroke:none;" d="M509 349C510.248 349.685 510.548 349.749 512 350C510.752 349.315 510.452 349.251 509 349z"/>
<path style="fill:#f1b9b5; stroke:none;" d="M382 350L383 351L382 350z"/>
<path style="fill:#e7867e; stroke:none;" d="M442 350C443.248 350.685 443.548 350.749 445 351C443.752 350.315 443.452 350.251 442 350z"/>
<path style="fill:#eb9892; stroke:none;" d="M473 350L474 351L473 350z"/>
<path style="fill:#eb9a93; stroke:none;" d="M486 350L487 351L486 350z"/>
<path style="fill:#eeaba6; stroke:none;" d="M514.667 350.333C514.222 350.778 515.278 350.722 515.333 350.667C515.778 350.222 514.722 350.278 514.667 350.333z"/>
<path style="fill:#e06157; stroke:none;" d="M516.667 350.333C516.222 350.778 517.278 350.722 517.333 350.667C517.778 350.222 516.722 350.278 516.667 350.333z"/>
<path style="fill:#f1b9b5; stroke:none;" d="M577 350L578 351L577 350z"/>
<path style="fill:#e26c63; stroke:none;" d="M382 351L383 352L382 351z"/>
<path style="fill:#e37269; stroke:none;" d="M436 351C437.248 351.685 437.548 351.749 439 352C437.752 351.315 437.452 351.251 436 351z"/>
<path style="fill:#f9e3e1; stroke:none;" d="M439.667 351.333C439.222 351.778 440.278 351.722 440.333 351.667C440.778 351.222 439.722 351.278 439.667 351.333z"/>
<path style="fill:#eda49e; stroke:none;" d="M520.667 351.333C520.222 351.778 521.278 351.722 521.333 351.667C521.778 351.222 520.722 351.278 520.667 351.333z"/>
<path style="fill:#df5d53; stroke:none;" d="M522.667 351.333C522.222 351.778 523.278 351.722 523.333 351.667C523.778 351.222 522.722 351.278 522.667 351.333z"/>
<path style="fill:#e26d64; stroke:none;" d="M577 351L578 352L577 351z"/>
<path style="fill:#ea948d; stroke:none;" d="M431 352C432.248 352.685 432.548 352.749 434 353C432.752 352.315 432.452 352.251 431 352z"/>
<path style="fill:#f2bfbb; stroke:none;" d="M474 352L475 353L474 352z"/>
<path style="fill:#f2c0bc; stroke:none;" d="M485 352L486 353L485 352z"/>
<path style="fill:#ea948d; stroke:none;" d="M526 352C527.248 352.685 527.548 352.749 529 353C527.752 352.315 527.452 352.251 526 352z"/>
<path style="fill:#eda6a1; stroke:none;" d="M381 353L382 354L381 353z"/>
<path style="fill:#e68078; stroke:none;" d="M425 353C426.248 353.685 426.548 353.749 428 354C426.752 353.315 426.452 353.251 425 353z"/>
<path style="fill:#e98e87; stroke:none;" d="M532 353C533.248 353.685 533.548 353.749 535 354C533.752 353.315 533.452 353.251 532 353z"/>
<path style="fill:#eea7a1; stroke:none;" d="M578 353L579 354L578 353z"/>
<path style="fill:#e57c74; stroke:none;" d="M419.667 354.333C419.222 354.778 420.278 354.722 420.333 354.667C420.778 354.222 419.722 354.278 419.667 354.333z"/>
<path style="fill:#f4c6c3; stroke:none;" d="M421.667 354.333C421.222 354.778 422.278 354.722 422.333 354.667C422.778 354.222 421.722 354.278 421.667 354.333z"/>
<path style="fill:#e88b84; stroke:none;" d="M475 354L475 359C475.83 356.969 475.83 356.03 475 354z"/>
<path style="fill:#e88c85; stroke:none;" d="M484 354L484 359C484.83 356.969 484.83 356.03 484 354z"/>
<path style="fill:#eda29c; stroke:none;" d="M537.667 354.333C537.222 354.778 538.278 354.722 538.333 354.667C538.778 354.222 537.722 354.278 537.667 354.333z"/>
<path style="fill:#de574d; stroke:none;" d="M539.667 354.333C539.222 354.778 540.278 354.722 540.333 354.667C540.778 354.222 539.722 354.278 539.667 354.333z"/>
<path style="fill:#e98e87; stroke:none;" d="M414 355C415.248 355.685 415.548 355.749 417 356C415.752 355.315 415.452 355.251 414 355z"/>
<path style="fill:#eb9c96; stroke:none;" d="M543 355C544.248 355.685 544.548 355.749 546 356C544.752 355.315 544.452 355.251 543 355z"/>
<path style="fill:#ea948d; stroke:none;" d="M380 356L381 357L380 356z"/>
<path style="fill:#e88b83; stroke:none;" d="M408 356C409.248 356.685 409.548 356.749 411 357C409.752 356.315 409.452 356.251 408 356z"/>
<path style="fill:#efafaa; stroke:none;" d="M548 356C549.248 356.685 549.548 356.749 551 357C549.752 356.315 549.452 356.251 548 356z"/>
<path style="fill:#ea948d; stroke:none;" d="M579 356L580 357L579 356z"/>
<path style="fill:#eb9c96; stroke:none;" d="M403 357C404.248 357.685 404.548 357.749 406 358C404.752 357.315 404.452 357.251 403 357z"/>
<path style="fill:#eeaaa5; stroke:none;" d="M554 357C555.249 357.685 555.548 357.749 557 358C555.752 357.315 555.452 357.251 554 357z"/>
<path style="fill:#ea958f; stroke:none;" d="M397 358C398.248 358.685 398.548 358.749 400 359C398.752 358.315 398.452 358.251 397 358z"/>
<path style="fill:#eda49e; stroke:none;" d="M560.667 358.333C560.222 358.778 561.278 358.722 561.333 358.667C561.778 358.222 560.722 358.278 560.667 358.333z"/>
<path style="fill:#dd554b; stroke:none;" d="M562.667 358.333C562.222 358.778 563.278 358.722 563.333 358.667C563.778 358.222 562.722 358.278 562.667 358.333z"/>
<path style="fill:#e68179; stroke:none;" d="M379 359L380 360L379 359z"/>
<path style="fill:#e78780; stroke:none;" d="M391 359C392.248 359.685 392.548 359.749 394 360C392.752 359.315 392.452 359.251 391 359z"/>
<path style="fill:#e26a61; stroke:none;" d="M475 359L475 362C475.696 360.446 475.696 360.554 475 359z"/>
<path style="fill:#dd554b; stroke:none;" d="M484 359L484 364C484.83 361.969 484.83 361.031 484 359z"/>
<path style="fill:#ea958f; stroke:none;" d="M566.667 359.333C566.222 359.778 567.278 359.722 567.333 359.667C567.778 359.222 566.722 359.278 566.667 359.333z"/>
<path style="fill:#db473c; stroke:none;" d="M568.667 359.333C568.222 359.778 569.278 359.722 569.333 359.667C569.778 359.222 568.722 359.278 568.667 359.333z"/>
<path style="fill:#e6817a; stroke:none;" d="M580 359L581 360L580 359z"/>
<path style="fill:#e47971; stroke:none;" d="M385.667 360.333C385.222 360.778 386.278 360.722 386.333 360.667C386.778 360.222 385.722 360.278 385.667 360.333z"/>
<path style="fill:#f4c6c3; stroke:none;" d="M387.667 360.333C387.222 360.778 388.278 360.722 388.333 360.667C388.778 360.222 387.722 360.278 387.667 360.333z"/>
<path style="fill:#f0b2ad; stroke:none;" d="M571.667 360.333C571.222 360.778 572.278 360.722 572.333 360.667C572.778 360.222 571.722 360.278 571.667 360.333z"/>
<path style="fill:#e0645a; stroke:none;" d="M573.667 360.333C573.222 360.778 574.278 360.722 574.333 360.667C574.778 360.222 573.722 360.278 573.667 360.333z"/>
<path style="fill:#f2c0bc; stroke:none;" d="M378 361L379 362L378 361z"/>
<path style="fill:#e4756d; stroke:none;" d="M379.667 361.333C379.222 361.778 380.278 361.722 380.333 361.667C380.778 361.222 379.722 361.278 379.667 361.333z"/>
<path style="fill:#f2c0bc; stroke:none;" d="M381.667 361.333C381.222 361.778 382.278 361.722 382.333 361.667C382.778 361.222 381.722 361.278 381.667 361.333z"/>
<path style="fill:#eb9b95; stroke:none;" d="M577.667 361.333C577.222 361.778 578.278 361.722 578.333 361.667C578.778 361.222 577.722 361.278 577.667 361.333z"/>
<path style="fill:#dc5046; stroke:none;" d="M579.667 361.333C579.222 361.778 580.278 361.722 580.333 361.667C580.778 361.222 579.722 361.278 579.667 361.333z"/>
<path style="fill:#f2c0bc; stroke:none;" d="M581 361L582 362L581 361z"/>
<path style="fill:#f6d0ce; stroke:none;" d="M474 367L474 374C475.059 371.466 475.059 369.534 474 367z"/>
<path style="fill:#f8dcda; stroke:none;" d="M485 368L485 371C485.696 369.446 485.696 369.554 485 368z"/>
<path style="fill:#f1bbb7; stroke:none;" d="M485 371L485 374C485.696 372.446 485.696 372.554 485 371z"/>
<path style="fill:#eb9992; stroke:none;" d="M474 374L474 377C474.696 375.446 474.696 375.554 474 374z"/>
<path style="fill:#eb9a93; stroke:none;" d="M485 374L485 377C485.696 375.446 485.696 375.554 485 374z"/>
<path style="fill:#e4776f; stroke:none;" d="M474 377L474 380C474.696 378.446 474.696 378.554 474 377z"/>
<path style="fill:#e47870; stroke:none;" d="M485 377L485 380C485.696 378.446 485.696 378.554 485 377z"/>
<path style="fill:#d94034; stroke:none;" d="M474 380L474 384C474.71 382.241 474.71 381.76 474 380z"/>
<path style="fill:#de574d; stroke:none;" d="M485 380L485 383C485.696 381.446 485.696 381.554 485 380z"/>
<path style="fill:#f4c8c5; stroke:none;" d="M486 387L486 394C487.059 391.466 487.059 389.534 486 387z"/>
<path style="fill:#f6d2cf; stroke:none;" d="M473 388L473 391C473.696 389.446 473.696 389.554 473 388z"/>
<path style="fill:#f0b1ac; stroke:none;" d="M473 391L473 394C473.696 392.446 473.696 392.554 473 391z"/>
<path style="fill:#e57a72; stroke:none;" d="M473 394L473 400C473.951 397.715 473.951 396.285 473 394z"/>
<path style="fill:#e57b73; stroke:none;" d="M486 394L486 401C487.059 398.466 487.059 396.534 486 394z"/>
<path style="fill:#dc4d42; stroke:none;" d="M473 400L473 403C473.696 401.446 473.696 401.554 473 400z"/>
<path style="fill:#f4c9c6; stroke:none;" d="M472 406L472 411C472.83 408.969 472.83 408.03 472 406z"/>
<path style="fill:#f4cac7; stroke:none;" d="M487 406L487 411C487.83 408.969 487.83 408.031 487 406z"/>
<path style="fill:#eea8a2; stroke:none;" d="M472 411L472 414C472.696 412.446 472.696 412.554 472 411z"/>
<path style="fill:#eea9a3; stroke:none;" d="M487 411L487 414C487.696 412.446 487.696 412.554 487 411z"/>
<path style="fill:#e7867f; stroke:none;" d="M472 414L472 417C472.696 415.446 472.696 415.554 472 414z"/>
<path style="fill:#e37269; stroke:none;" d="M487 414L487 421C488.059 418.466 488.059 416.534 487 414z"/>
<path style="fill:#dc5045; stroke:none;" d="M472 417L472 421C472.71 419.24 472.71 418.76 472 417z"/>
<path style="fill:#f9e1df; stroke:none;" d="M471 425L471 428C471.696 426.446 471.696 426.554 471 425z"/>
<path style="fill:#f9e2e0; stroke:none;" d="M488 425L488 428C488.696 426.446 488.696 426.554 488 425z"/>
<path style="fill:#f2c0bc; stroke:none;" d="M471 428L471 431C471.696 429.446 471.696 429.554 471 428z"/>
<path style="fill:#f3c1bd; stroke:none;" d="M488 428L488 431C488.696 429.446 488.696 429.554 488 428z"/>
<path style="fill:#e88982; stroke:none;" d="M471 431L471 438C472.059 435.466 472.059 433.534 471 431z"/>
<path style="fill:#e88a83; stroke:none;" d="M488 431L488 438C489.059 435.466 489.059 433.534 488 431z"/>
<path style="fill:#dd5247; stroke:none;" d="M488 438L488 441C488.696 439.446 488.696 439.554 488 438z"/>
</svg>
