<svg xmlns="http://www.w3.org/2000/svg" width="1000" height="500">
  <rect width="1000" height="500" fill="#f00"/>
  <rect width="500" height="500" x="250" fill="#fff"/>
  <path fill="#f00" d="M499.99999,116.5l-22.4,3.8-18.7,12.1-14.4,19.4-9,24.8-3,25.6,2.7,24.8,8.6,24.8,14.1,19.8,18.4,12.4,22.4,4.1,22.4-4.1,18.4-12.4,14.1-19.8,8.6-24.8,2.7-24.8-3-25.6-9-24.8-14.4-19.4-18.7-12.1-22.4-3.8zm-47,87.8l-5-0.3-2.7-1.8-1.2-2.6,0.3-3,1.8-2.7,2.7-1.5,3-0.3,3,0.9,2.4,1.8,1.5,2.7,0.3,3-0.9,3-2.1,2.4-3,1.5zm94,0l-5-0.3-2.7-1.8-1.2-2.6,0.3-3,1.8-2.7,2.7-1.5,3-0.3,3,0.9,2.4,1.8,1.5,2.7,0.3,3-0.9,3-2.1,2.4-3,1.5zm-47,80.9l-5-0.3-2.7-1.8-1.2-2.6,0.3-3,1.8-2.7,2.7-1.5,3-0.3,3,0.9,2.4,1.8,1.5,2.7,0.3,3-0.9,3-2.1,2.4-3,1.5z"/>
  <path fill="#f00" d="M 500,100 L 500,140 L 460,140 L 460,180 L 420,180 L 420,220 L 460,220 L 460,260 L 500,260 L 500,300 L 540,300 L 540,260 L 580,260 L 580,220 L 620,220 L 620,180 L 580,180 L 580,140 L 540,140 L 540,100 L 500,100 z"/>
</svg>
